<svg xmlns="http://www.w3.org/2000/svg" xmlns:xlink="http://www.w3.org/1999/xlink" viewBox="0 0 120 70"><defs><clipPath id="a"><path d="M60,3.209h0c28.18,0,51.024,11.422,51.024,25.512S88.18,54.233,60,54.233,8.976,42.811,8.976,28.721c0-14.062,22.756-25.465,50.859-25.51C28.6,3.256,3.307,15.928,3.307,31.556v5.669C3.307,52.88,28.689,65.571,60,65.571s56.693-12.691,56.693-28.346V31.556C116.693,15.9,91.311,3.209,60,3.209Z" style="fill:none"/></clipPath></defs><path d="M60,3.209C28.689,3.209,3.307,15.9,3.307,31.556v5.669C3.307,52.88,28.689,65.571,60,65.571s56.693-12.691,56.693-28.346V31.556C116.693,15.9,91.311,3.209,60,3.209Z"/><ellipse cx="60" cy="28.721" rx="51.024" ry="25.512" style="fill:#1f0a06"/><ellipse cx="60" cy="27.87" rx="41.968" ry="18.545" style="fill:none;stroke:#301d19;stroke-miterlimit:10;stroke-width:1.41732283464567px;stroke-dasharray:5.6692914962768555,2.8346457481384277,1.4173228740692139,2.8346457481384277"/><ellipse cx="60" cy="26.737" rx="23.872" ry="10.549" style="fill:none;stroke:#301d19;stroke-miterlimit:10;stroke-width:0.80503937007874px;stroke-dasharray:3.2248117923736572,1.6124058961868286,0.8062029480934143,1.6124058961868286"/><g style="clip-path:url(#a)"><line x1="119.745" y1="28.721" x2="119.745" y2="122.781" style="fill:none;stroke:#301d19;stroke-miterlimit:10;stroke-width:1.41732283464567px"/><line x1="114.766" y1="28.721" x2="114.766" y2="122.781" style="fill:none;stroke:#301d19;stroke-miterlimit:10;stroke-width:1.41732283464567px"/><line x1="109.787" y1="28.721" x2="109.787" y2="122.781" style="fill:none;stroke:#301d19;stroke-miterlimit:10;stroke-width:1.41732283464567px"/><line x1="104.808" y1="28.721" x2="104.808" y2="122.781" style="fill:none;stroke:#301d19;stroke-miterlimit:10;stroke-width:1.41732283464567px"/><line x1="99.83" y1="28.721" x2="99.83" y2="122.781" style="fill:none;stroke:#301d19;stroke-miterlimit:10;stroke-width:1.41732283464567px"/><line x1="94.851" y1="28.721" x2="94.851" y2="122.781" style="fill:none;stroke:#301d19;stroke-miterlimit:10;stroke-width:1.41732283464567px"/><line x1="89.872" y1="28.721" x2="89.872" y2="122.781" style="fill:none;stroke:#301d19;stroke-miterlimit:10;stroke-width:1.41732283464567px"/><line x1="84.894" y1="28.721" x2="84.894" y2="122.781" style="fill:none;stroke:#301d19;stroke-miterlimit:10;stroke-width:1.41732283464567px"/><line x1="79.915" y1="28.721" x2="79.915" y2="122.781" style="fill:none;stroke:#301d19;stroke-miterlimit:10;stroke-width:1.41732283464567px"/><line x1="74.936" y1="28.721" x2="74.936" y2="122.781" style="fill:none;stroke:#301d19;stroke-miterlimit:10;stroke-width:1.41732283464567px"/><line x1="69.957" y1="28.721" x2="69.957" y2="122.781" style="fill:none;stroke:#301d19;stroke-miterlimit:10;stroke-width:1.41732283464567px"/><line x1="64.979" y1="28.721" x2="64.979" y2="122.781" style="fill:none;stroke:#301d19;stroke-miterlimit:10;stroke-width:1.41732283464567px"/><line x1="60" y1="28.721" x2="60" y2="122.781" style="fill:none;stroke:#301d19;stroke-miterlimit:10;stroke-width:1.41732283464567px"/><line x1="55.021" y1="28.721" x2="55.021" y2="122.781" style="fill:none;stroke:#301d19;stroke-miterlimit:10;stroke-width:1.41732283464567px"/><line x1="50.043" y1="28.721" x2="50.043" y2="122.781" style="fill:none;stroke:#301d19;stroke-miterlimit:10;stroke-width:1.41732283464567px"/><line x1="45.064" y1="28.721" x2="45.064" y2="122.781" style="fill:none;stroke:#301d19;stroke-miterlimit:10;stroke-width:1.41732283464567px"/><line x1="40.085" y1="28.721" x2="40.085" y2="122.781" style="fill:none;stroke:#301d19;stroke-miterlimit:10;stroke-width:1.41732283464567px"/><line x1="35.106" y1="28.721" x2="35.106" y2="122.781" style="fill:none;stroke:#301d19;stroke-miterlimit:10;stroke-width:1.41732283464567px"/><line x1="30.128" y1="28.721" x2="30.128" y2="122.781" style="fill:none;stroke:#301d19;stroke-miterlimit:10;stroke-width:1.41732283464567px"/><line x1="25.149" y1="28.721" x2="25.149" y2="122.781" style="fill:none;stroke:#301d19;stroke-miterlimit:10;stroke-width:1.41732283464567px"/><line x1="20.17" y1="28.721" x2="20.17" y2="122.781" style="fill:none;stroke:#301d19;stroke-miterlimit:10;stroke-width:1.41732283464567px"/><line x1="15.192" y1="28.721" x2="15.192" y2="122.781" style="fill:none;stroke:#301d19;stroke-miterlimit:10;stroke-width:1.41732283464567px"/><line x1="10.213" y1="28.721" x2="10.213" y2="122.781" style="fill:none;stroke:#301d19;stroke-miterlimit:10;stroke-width:1.41732283464567px"/><line x1="5.234" y1="28.721" x2="5.234" y2="122.781" style="fill:none;stroke:#301d19;stroke-miterlimit:10;stroke-width:1.41732283464567px"/><line x1="0.255" y1="28.721" x2="0.255" y2="122.781" style="fill:none;stroke:#301d19;stroke-miterlimit:10;stroke-width:1.41732283464567px"/></g></svg>